{"glyphs":{":":{"x_min":0,"x_max":306,"ha":306,"o":"m 0 62 q 0 115 32 146 q 63 176 119 176 q 160 176 184 156 q 207 137 207 100 q 207 42 178 15 q 148 -12 85 -12 q 47 -12 23 6 q 0 24 0 62 z m 95 447 q 95 500 127 530 q 159 560 213 560 q 253 560 277 542 q 302 523 302 485 q 302 427 273 399 q 244 372 180 372 q 142 372 118 390 q 95 409 95 447 z"},"$":{"x_min":0,"x_max":580,"ha":580,"o":"m 521 235 q 521 148 456 93 q 391 39 280 32 l 261 -59 l 179 -59 l 199 34 q 91 42 30 79 l 30 231 q 91 202 141 189 q 191 176 240 176 q 325 176 325 227 q 325 247 309 262 q 293 278 241 303 q 173 333 137 381 q 100 429 100 492 q 100 578 165 633 q 230 688 340 695 l 354 760 l 436 760 l 421 693 q 500 686 574 649 l 506 517 q 429 552 362 552 q 330 552 311 538 q 293 524 293 505 q 293 479 312 461 q 331 443 389 415 q 458 382 489 339 q 521 296 521 235 z"},"?":{"x_min":0,"x_max":488,"ha":488,"o":"m 125 252 l 131 283 q 138 322 151 351 q 165 379 186 401 q 208 424 255 455 q 298 483 316 501 q 334 520 334 539 q 334 573 290 573 q 229 573 137 520 l 79 658 q 192 724 304 724 q 402 724 460 680 q 518 636 518 559 q 518 516 505 483 q 491 450 466 424 q 441 398 383 363 q 334 333 313 314 q 292 294 286 273 l 279 252 z m 86 62 q 86 114 118 145 q 149 176 205 176 q 248 176 270 156 q 293 136 293 100 q 293 46 262 17 q 231 -12 177 -12 q 134 -12 110 7 q 86 26 86 62 z"},"<":{"x_min":0,"x_max":566,"ha":566,"o":"m 518 86 l 43 306 l 43 390 l 518 638 l 518 492 l 237 354 l 518 231 z"},"'":{"x_min":0,"x_max":238,"ha":238,"o":"m 291 714 l 214 456 l 89 456 l 124 714 z"},"=":{"x_min":0,"x_max":566,"ha":566,"o":"m 50 378 l 50 508 l 526 508 l 526 378 z m 50 195 l 50 327 l 526 327 l 526 195 z"},"a":{"x_min":0,"x_max":607,"ha":607,"o":"m 276 142 q 300 142 323 171 q 345 199 358 247 q 371 295 371 341 q 371 373 361 392 q 352 411 331 411 q 294 411 264 349 q 234 288 234 212 q 234 142 276 142 z m 479 0 l 328 0 l 333 60 l 329 60 q 302 22 270 6 q 238 -10 198 -10 q 121 -10 81 45 q 41 99 41 201 q 41 289 77 379 q 112 470 167 517 q 221 563 287 563 q 328 563 359 545 q 391 526 415 485 l 419 485 l 445 553 l 596 553 z"},"L":{"x_min":0,"x_max":527,"ha":527,"o":"m 16 0 l 167 714 l 358 714 l 240 156 l 473 156 l 440 0 z"},"3":{"x_min":0,"x_max":580,"ha":580,"o":"m 550 555 q 550 483 506 436 q 462 388 383 372 l 383 368 q 446 356 481 314 q 517 271 517 210 q 517 104 430 47 q 343 -10 195 -10 q 138 -10 89 0 q 39 10 7 29 l 7 191 q 88 142 191 142 q 258 142 292 165 q 325 188 325 230 q 325 256 312 270 q 299 283 270 289 q 241 295 189 295 l 148 295 l 174 437 l 212 437 q 284 437 324 460 q 364 482 364 522 q 364 544 346 558 q 329 572 298 572 q 241 572 166 531 l 89 652 q 150 691 208 708 q 265 724 334 724 q 432 724 491 679 q 550 633 550 555 z"},";":{"x_min":0,"x_max":306,"ha":306,"o":"m 205 116 l 209 105 q 152 -23 84 -129 l -57 -129 q -25 -57 15 60 l 35 116 z m 95 447 q 95 500 127 530 q 159 560 213 560 q 253 560 277 542 q 302 523 302 485 q 302 427 273 399 q 244 372 180 372 q 142 372 118 390 q 95 409 95 447 z"},"J":{"x_min":0,"x_max":373,"ha":373,"o":"m -56 -225 q -108 -225 -160 -211 l -160 -55 q -112 -67 -75 -67 q -23 -67 4 -38 q 31 -9 45 57 l 186 714 l 377 714 l 231 33 q 210 -64 176 -119 q 142 -174 87 -200 q 32 -225 -56 -225 z"},"V":{"x_min":0,"x_max":617,"ha":617,"o":"m 489 714 l 691 714 l 337 0 l 124 0 l 73 714 l 260 714 l 273 323 l 273 298 q 273 228 265 173 l 269 173 q 276 204 291 250 q 306 295 318 321 z"},"\"":{"x_min":0,"x_max":454,"ha":454,"o":"m 291 714 l 214 456 l 89 456 l 124 714 z m 507 714 l 430 456 l 304 456 l 340 714 z"},"7":{"x_min":0,"x_max":580,"ha":580,"o":"m 17 0 l 367 554 l 87 554 l 121 714 l 624 714 l 599 601 l 236 0 z"},"S":{"x_min":0,"x_max":548,"ha":548,"o":"m 477 219 q 477 111 405 51 q 333 -10 205 -10 q 151 -10 104 2 q 56 14 21 37 l 21 208 q 62 182 115 165 q 168 147 211 147 q 247 147 266 162 q 284 177 284 205 q 284 218 278 230 q 272 241 262 253 q 251 264 204 303 q 147 349 121 397 q 95 445 95 502 q 95 566 127 617 q 159 668 218 696 q 276 724 348 724 q 465 724 558 672 l 492 527 q 409 570 350 570 q 319 570 302 556 q 285 542 285 516 q 285 492 302 471 q 318 451 364 416 q 421 374 449 327 q 477 280 477 219 z"},"}":{"x_min":0,"x_max":359,"ha":359,"o":"m -24 -158 l -60 -158 l -60 -21 q -24 -20 -7 -14 q 11 -9 20 2 q 28 13 34 42 l 60 168 q 70 216 103 243 q 136 270 196 276 l 196 280 q 113 307 113 394 q 113 400 118 430 l 135 510 q 138 524 138 534 q 138 577 72 577 l 98 714 l 128 714 q 210 714 254 679 q 299 645 299 580 q 299 546 292 517 l 274 432 q 271 419 271 411 q 271 379 293 362 q 314 345 365 345 l 337 205 q 278 205 248 185 q 218 166 208 120 l 181 0 q 163 -83 114 -121 q 65 -158 -24 -158 z"},"Z":{"x_min":0,"x_max":539,"ha":539,"o":"m 460 0 l -45 0 l -22 118 l 315 558 l 81 558 l 114 714 l 595 714 l 570 594 l 228 156 l 493 156 z"},"x":{"x_min":0,"x_max":566,"ha":566,"o":"m 266 160 l 163 0 l -58 0 l 173 282 l 72 553 l 278 553 l 315 400 l 406 553 l 630 553 l 403 272 l 514 0 l 305 0 z"},")":{"x_min":0,"x_max":374,"ha":374,"o":"m 339 417 q 339 250 279 110 q 219 -30 94 -158 l -65 -158 q 60 -23 120 121 q 179 265 179 425 q 179 498 163 582 q 147 667 121 734 l 265 734 q 300 673 319 588 q 339 503 339 417 z m 205 725 z"},"&":{"x_min":0,"x_max":733,"ha":733,"o":"m 4 188 q 4 266 47 317 q 89 369 179 398 q 161 420 150 456 q 138 491 138 520 q 138 616 200 671 q 261 725 373 725 q 465 725 521 682 q 576 639 576 567 q 576 503 537 453 q 498 403 409 357 l 472 266 q 490 284 509 322 q 528 360 540 401 l 727 401 q 705 322 664 252 q 624 181 572 128 l 665 0 l 449 0 l 428 30 q 353 -10 258 -10 q 139 -10 71 42 q 4 94 4 188 z m 364 596 q 340 596 325 579 q 310 562 310 533 q 310 496 335 463 q 370 478 387 502 q 404 525 404 554 q 404 571 393 584 q 382 596 364 596 z m 279 140 q 316 140 346 153 l 252 289 q 195 264 195 207 q 195 177 218 158 q 241 140 279 140 z"},"_":{"x_min":0,"x_max":450,"ha":450,"o":"m 364 -185 l -90 -185 l -62 -65 l 392 -65 z"},"v":{"x_min":0,"x_max":544,"ha":544,"o":"m 114 0 l 43 553 l 231 553 l 244 259 q 244 223 240 201 l 244 201 q 245 208 253 232 q 261 256 271 276 q 280 296 400 553 l 602 553 l 303 0 z"},"O":{"x_min":0,"x_max":737,"ha":737,"o":"m 438 725 q 565 725 635 653 q 706 580 706 450 q 706 320 657 213 q 609 105 523 48 q 438 -10 325 -10 q 194 -10 122 63 q 51 136 51 265 q 51 395 101 503 q 151 611 238 668 q 325 725 438 725 z m 513 448 q 513 504 490 535 q 466 567 422 567 q 374 567 333 526 q 292 485 268 413 q 244 341 244 266 q 244 148 342 148 q 388 148 428 188 q 468 229 490 298 q 513 367 513 448 z"},"(":{"x_min":0,"x_max":374,"ha":374,"o":"m 33 159 q 33 320 94 461 q 155 603 283 734 l 441 734 q 314 597 253 453 q 193 309 193 151 q 193 78 209 -8 q 225 -94 250 -158 l 107 -158 q 74 -100 54 -12 q 33 75 33 159 z m 352 725 z"},"C":{"x_min":0,"x_max":630,"ha":630,"o":"m 430 566 q 377 566 335 528 q 292 490 268 423 q 244 356 244 278 q 244 212 271 180 q 299 148 350 148 q 391 148 432 158 q 474 168 530 192 l 530 34 q 431 -10 315 -10 q 188 -10 119 63 q 51 135 51 268 q 51 398 100 506 q 150 615 235 670 q 320 725 430 725 q 560 725 665 661 l 593 512 q 547 539 509 552 q 471 566 430 566 z"},"W":{"x_min":0,"x_max":935,"ha":935,"o":"m 238 173 l 257 224 l 303 337 l 467 714 l 631 714 l 631 327 q 631 251 618 173 q 623 187 683 342 l 831 714 l 1020 714 l 710 0 l 485 0 l 485 303 q 485 378 491 461 q 475 396 434 291 l 310 0 l 98 0 l 74 714 l 255 714 l 250 356 q 247 226 238 173 z"},"A":{"x_min":0,"x_max":676,"ha":676,"o":"m 419 134 l 200 134 l 139 0 l -59 0 l 304 714 l 550 714 l 610 0 l 424 0 z m 270 286 l 413 286 l 405 493 l 404 535 q 404 572 406 599 q 394 557 376 518 z"},"f":{"x_min":0,"x_max":410,"ha":410,"o":"m -1 -240 q -55 -240 -102 -227 l -102 -79 q -71 -88 -45 -88 q -9 -88 10 -73 q 28 -59 35 -27 l 128 411 l 47 411 l 68 504 l 160 551 l 168 587 q 189 681 240 723 q 290 765 374 765 q 413 765 450 757 q 486 750 512 737 l 464 608 q 433 623 401 623 q 384 623 372 614 q 360 605 356 588 l 348 553 l 451 553 l 419 411 l 317 411 l 217 -57 q 196 -151 142 -196 q 88 -240 -1 -240 z"},"Q":{"x_min":0,"x_max":737,"ha":737,"o":"m 441 725 q 567 725 636 652 q 706 579 706 450 q 706 313 650 202 q 595 90 499 36 l 615 -170 l 401 -170 l 322 -10 l 316 -10 q 190 -10 120 63 q 51 136 51 265 q 51 395 101 502 q 151 610 239 668 q 326 725 441 725 z m 425 565 q 375 565 333 524 q 291 484 268 414 q 244 344 244 263 q 244 207 267 179 q 291 151 333 151 q 383 151 424 190 q 465 230 489 300 q 513 370 513 452 q 513 508 490 536 q 467 565 425 565 z"},"w":{"x_min":0,"x_max":823,"ha":823,"o":"m 410 0 l 420 219 q 421 255 426 321 q 430 388 436 428 l 432 428 q 403 314 373 238 l 281 0 l 82 0 l 50 553 l 228 553 l 228 303 q 228 214 224 177 l 228 177 q 250 263 271 321 l 355 553 l 564 553 l 554 321 q 550 258 538 177 l 542 177 q 545 188 550 200 q 554 212 573 268 q 593 324 691 553 l 879 553 l 616 0 z"},"-":{"x_min":0,"x_max":329,"ha":329,"o":"m 11 192 l 42 344 l 312 344 l 281 192 z"},"E":{"x_min":0,"x_max":562,"ha":562,"o":"m 440 0 l 16 0 l 167 714 l 591 714 l 559 559 l 326 559 l 303 447 l 520 447 l 485 292 l 268 292 l 240 157 l 473 157 z"},"s":{"x_min":0,"x_max":502,"ha":502,"o":"m 435 192 q 435 95 372 42 q 308 -10 189 -10 q 81 -10 15 21 l 15 173 q 60 148 99 139 q 137 129 177 129 q 210 129 227 138 q 243 147 243 163 q 243 180 230 193 q 218 205 167 234 q 115 262 92 299 q 68 335 68 388 q 68 472 127 518 q 186 563 295 563 q 350 563 395 550 q 439 538 482 511 l 423 388 q 391 409 356 422 q 322 434 297 434 q 260 434 260 401 q 260 387 275 376 q 291 365 325 348 q 435 293 435 192 z"},">":{"x_min":0,"x_max":566,"ha":566,"o":"m 53 231 l 334 354 l 53 492 l 53 638 l 528 390 l 528 306 l 53 86 z"},"l":{"x_min":0,"x_max":325,"ha":325,"o":"m 200 0 l 11 0 l 172 760 l 361 760 z"},"8":{"x_min":0,"x_max":580,"ha":580,"o":"m 354 725 q 452 725 508 680 q 565 635 565 562 q 565 500 527 450 q 489 401 428 382 q 473 347 497 305 q 520 262 520 205 q 520 104 451 47 q 382 -10 262 -10 q 152 -10 88 39 q 24 87 24 165 q 24 312 186 369 q 110 428 110 520 q 110 579 139 626 q 169 672 224 699 q 280 725 354 725 z m 285 297 q 202 253 202 188 q 202 162 220 145 q 238 128 267 128 q 301 128 322 148 q 343 169 343 202 q 343 258 285 297 z m 345 587 q 322 587 304 568 q 287 548 287 520 q 287 501 299 482 q 310 463 329 454 q 357 465 374 489 q 391 513 391 539 q 391 563 377 575 q 363 587 345 587 z"},"\\":{"x_min":0,"x_max":467,"ha":467,"o":"m 259 724 l 380 -10 l 224 -10 l 108 724 z"},"e":{"x_min":0,"x_max":579,"ha":579,"o":"m 260 -10 q 156 -10 99 48 q 41 106 41 209 q 41 312 82 395 q 123 478 194 520 q 265 563 358 563 q 451 563 504 521 q 557 479 557 409 q 557 311 481 259 q 404 206 260 206 l 231 206 l 231 198 q 231 126 311 126 q 350 126 387 137 q 424 149 471 174 l 471 40 q 417 12 369 1 q 322 -10 260 -10 z m 337 435 q 307 435 281 401 q 255 367 250 324 l 264 324 q 317 324 348 344 q 378 365 378 398 q 378 414 368 424 q 358 435 337 435 z"},"b":{"x_min":0,"x_max":607,"ha":607,"o":"m 321 -10 q 280 -10 250 6 q 220 21 189 61 l 185 61 l 161 0 l 11 0 l 172 760 l 361 760 l 337 647 q 318 562 293 500 l 297 500 q 320 529 335 540 q 349 551 367 557 q 385 563 409 563 q 485 563 525 509 q 566 454 566 352 q 566 265 531 175 q 497 85 442 38 q 388 -10 321 -10 z m 331 411 q 307 411 285 383 q 263 355 250 308 q 237 261 237 212 q 237 180 246 161 q 255 142 275 142 q 299 142 322 171 q 345 200 359 247 q 373 294 373 341 q 373 411 331 411 z"},"%":{"x_min":0,"x_max":917,"ha":917,"o":"m 796 714 l 268 0 l 123 0 l 655 714 z m 243 606 q 219 606 200 552 q 181 499 181 435 q 181 394 207 394 q 232 394 251 448 q 269 502 269 565 q 269 586 263 596 q 257 606 243 606 z m 411 567 q 411 486 384 419 q 356 352 306 314 q 257 276 194 276 q 116 276 78 317 q 39 357 39 433 q 39 518 65 584 q 92 651 141 688 q 190 724 257 724 q 329 724 370 683 q 411 641 411 567 z m 720 320 q 696 320 677 266 q 658 212 658 149 q 658 108 684 108 q 709 108 728 162 q 746 216 746 279 q 746 300 740 310 q 734 320 720 320 z m 888 281 q 888 201 861 133 q 833 66 784 28 q 734 -10 671 -10 q 593 -10 555 31 q 516 71 516 147 q 516 231 542 298 q 569 365 618 401 q 667 438 734 438 q 806 438 847 396 q 888 355 888 281 z"},"m":{"x_min":0,"x_max":926,"ha":926,"o":"m 315 0 l 379 308 q 386 352 386 367 q 386 413 351 413 q 318 413 296 377 q 273 340 258 269 l 200 0 l 11 0 l 128 553 l 279 553 l 271 462 l 275 462 q 305 518 342 540 q 379 563 435 563 q 492 563 523 537 q 554 511 567 462 l 571 462 q 603 514 644 538 q 685 563 739 563 q 808 563 843 522 q 879 480 879 400 q 879 353 868 300 l 807 0 l 618 0 l 681 308 q 688 335 688 373 q 688 393 679 403 q 669 413 654 413 q 618 413 595 376 q 573 339 558 265 l 504 0 z"},"#":{"x_min":0,"x_max":646,"ha":646,"o":"m 521 406 l 493 308 l 612 308 l 602 192 l 459 192 l 405 0 l 273 0 l 328 192 l 246 192 l 191 0 l 59 0 l 114 192 l 7 192 l 17 308 l 147 308 l 175 406 l 60 406 l 70 524 l 209 524 l 263 714 l 395 714 l 341 524 l 423 524 l 477 714 l 609 714 l 555 524 l 663 524 l 653 406 z m 279 308 l 361 308 l 389 406 l 307 406 z"},",":{"x_min":0,"x_max":306,"ha":306,"o":"m 211 116 l 215 105 q 158 -23 90 -129 l -51 -129 q -25 -70 21 60 l 41 116 z"},"n":{"x_min":0,"x_max":622,"ha":622,"o":"m 384 371 q 384 392 373 403 q 362 413 347 413 q 319 413 296 378 q 272 344 257 270 l 200 0 l 11 0 l 128 553 l 279 553 l 273 476 l 277 476 q 304 522 340 543 q 376 563 429 563 q 498 563 537 521 q 575 479 575 406 q 575 354 563 294 l 501 0 l 312 0 l 375 302 q 384 340 384 371 z"},"h":{"x_min":0,"x_max":622,"ha":622,"o":"m 312 0 l 375 302 q 384 340 384 371 q 384 392 373 403 q 362 413 347 413 q 286 413 257 270 l 200 0 l 11 0 l 172 760 l 361 760 l 335 638 q 318 561 292 500 l 296 500 q 345 563 429 563 q 498 563 537 521 q 575 479 575 406 q 575 354 563 294 l 501 0 z"},"z":{"x_min":0,"x_max":485,"ha":485,"o":"m 392 0 l -20 0 l 1 108 l 246 407 l 76 407 l 109 553 l 505 553 l 479 435 l 237 146 l 424 146 z"},"B":{"x_min":0,"x_max":634,"ha":634,"o":"m 167 714 l 405 714 q 511 714 565 674 q 620 633 620 558 q 620 417 475 374 l 475 370 q 518 356 543 321 q 569 285 569 234 q 569 122 494 61 q 420 0 283 0 l 16 0 z m 300 440 l 335 440 q 378 440 400 458 q 422 477 422 518 q 422 568 360 568 l 329 568 z m 271 299 l 239 149 l 279 149 q 321 149 349 173 q 377 196 377 232 q 377 266 361 282 q 345 299 304 299 z"},"K":{"x_min":0,"x_max":669,"ha":669,"o":"m 606 0 l 392 0 l 307 282 l 260 255 l 207 0 l 16 0 l 167 714 l 358 714 l 292 409 l 311 438 q 354 508 374 533 l 519 714 l 743 714 l 474 385 z"},"R":{"x_min":0,"x_max":650,"ha":650,"o":"m 262 260 l 207 0 l 16 0 l 167 714 l 356 714 q 479 714 544 665 q 610 616 610 518 q 610 442 575 385 q 541 329 472 299 l 582 47 l 601 0 l 393 0 l 298 260 z m 293 405 l 318 405 q 364 405 392 431 q 419 458 419 506 q 419 536 402 552 q 385 568 353 568 l 327 568 z"},"T":{"x_min":0,"x_max":552,"ha":552,"o":"m 306 0 l 115 0 l 231 556 l 76 556 l 110 714 l 612 714 l 577 556 l 422 556 z"},"P":{"x_min":0,"x_max":623,"ha":623,"o":"m 611 500 q 611 377 527 307 q 443 237 298 237 l 256 237 l 207 0 l 16 0 l 167 714 l 349 714 q 476 714 543 658 q 611 603 611 500 z m 290 393 l 321 393 q 365 393 393 422 q 420 450 420 494 q 420 523 402 541 q 385 558 354 558 l 325 558 z"},"|":{"x_min":0,"x_max":566,"ha":566,"o":"m 216 756 l 348 756 l 348 -227 l 216 -227 z"},"t":{"x_min":0,"x_max":457,"ha":457,"o":"m 277 142 q 309 142 366 165 l 366 23 q 300 -10 200 -10 q 128 -10 91 21 q 53 52 53 123 q 53 160 65 215 l 106 411 l 31 411 l 51 504 l 157 547 l 224 664 l 350 664 l 326 553 l 467 553 l 436 411 l 295 411 l 254 224 q 246 187 246 173 q 246 142 277 142 z"},"M":{"x_min":0,"x_max":909,"ha":909,"o":"m 287 0 l 287 512 l 283 512 q 250 309 241 262 l 186 0 l 16 0 l 167 714 l 420 714 l 420 207 l 424 207 l 657 714 l 914 714 l 761 0 l 590 0 l 647 268 q 671 379 700 481 l 707 512 l 703 512 l 468 0 z"},"g":{"x_min":0,"x_max":559,"ha":559,"o":"m 603 553 l 583 452 l 505 427 q 510 407 510 381 q 510 288 446 230 q 383 173 281 173 q 244 173 220 179 q 210 174 204 168 q 197 163 197 154 q 197 133 251 125 l 318 116 q 403 104 440 72 q 477 39 477 -21 q 477 -126 395 -183 q 312 -240 161 -240 q 58 -240 -4 -203 q -65 -167 -65 -101 q -65 -53 -32 -19 q 1 16 72 39 q 54 50 42 68 q 31 86 31 107 q 31 142 56 168 q 81 195 130 218 q 66 268 66 355 q 66 451 132 507 q 199 563 312 563 q 337 563 365 560 q 392 557 408 553 z m 96 -74 q 96 -116 179 -116 q 240 -116 272 -102 q 304 -88 304 -62 q 304 -44 288 -35 q 272 -26 232 -22 l 176 -16 q 138 -21 117 -36 q 96 -51 96 -74 z m 244 338 q 244 292 277 292 q 302 292 319 325 q 335 359 335 403 q 335 449 305 449 q 287 449 273 433 q 259 417 252 390 q 244 364 244 338 z"},"j":{"x_min":0,"x_max":325,"ha":325,"o":"m -28 -240 q -82 -240 -129 -227 l -129 -79 q -102 -88 -74 -88 q -5 -88 11 -16 l 132 553 l 321 553 l 194 -46 q 174 -140 117 -190 q 60 -240 -28 -240 z m 155 675 q 155 725 184 751 q 213 777 265 777 q 310 777 334 759 q 358 741 358 708 q 358 662 331 634 q 304 606 248 606 q 155 606 155 675 z"},"i":{"x_min":0,"x_max":325,"ha":325,"o":"m 200 0 l 11 0 l 128 553 l 318 553 z m 151 675 q 151 725 180 751 q 209 777 261 777 q 306 777 330 759 q 354 741 354 708 q 354 659 326 633 q 297 606 244 606 q 151 606 151 675 z"},"y":{"x_min":0,"x_max":544,"ha":544,"o":"m 40 553 l 230 553 l 251 279 l 252 249 l 252 206 l 256 206 q 274 271 280 287 q 287 303 397 553 l 600 553 l 273 -70 q 226 -160 164 -200 q 102 -240 12 -240 q -33 -240 -63 -232 l -63 -82 q -41 -88 -10 -88 q 33 -88 60 -70 q 87 -52 108 -14 l 119 6 z"},"@":{"x_min":0,"x_max":897,"ha":897,"o":"m 866 404 q 866 321 832 250 q 798 180 739 141 q 680 101 609 101 q 526 101 502 164 l 497 164 q 474 132 443 117 q 412 101 366 101 q 309 101 273 142 q 237 183 237 250 q 237 326 273 394 q 309 461 369 497 q 429 532 504 532 q 580 532 668 498 l 619 296 q 608 250 608 229 q 608 209 627 209 q 658 209 684 233 q 709 256 723 300 q 738 344 738 401 q 738 505 673 558 q 607 612 486 612 q 395 612 322 567 q 249 522 208 441 q 168 360 168 256 q 168 185 195 132 q 222 79 270 50 q 318 21 379 21 q 429 21 493 33 q 557 45 613 67 l 613 -43 q 569 -64 504 -77 q 438 -91 381 -91 q 279 -91 201 -50 q 124 -9 82 67 q 40 144 40 244 q 40 385 97 494 q 154 603 261 663 q 368 724 498 724 q 671 724 769 639 q 866 554 866 404 z m 494 424 q 458 424 431 401 q 404 377 389 339 q 373 300 373 260 q 373 209 411 209 q 441 209 460 234 q 479 259 496 326 l 519 419 q 508 424 494 424 z"},".":{"x_min":0,"x_max":306,"ha":306,"o":"m 0 62 q 0 115 32 146 q 63 176 119 176 q 160 176 184 156 q 207 137 207 100 q 207 42 178 15 q 148 -12 85 -12 q 47 -12 23 6 q 0 24 0 62 z"},"p":{"x_min":0,"x_max":607,"ha":607,"o":"m 318 -10 q 248 -10 205 61 l 201 61 q 195 -20 174 -120 l 149 -240 l -40 -240 l 128 553 l 279 553 l 273 491 l 277 491 q 324 563 403 563 q 479 563 522 509 q 566 454 566 359 q 566 260 532 172 q 498 84 441 37 q 385 -10 318 -10 z m 331 411 q 307 411 285 383 q 263 355 250 308 q 237 261 237 212 q 237 180 248 161 q 259 142 280 142 q 303 142 325 170 q 346 198 360 245 q 373 292 373 341 q 373 411 331 411 z"},"X":{"x_min":0,"x_max":663,"ha":663,"o":"m 603 0 l 392 0 l 321 243 l 156 0 l -61 0 l 214 379 l 105 714 l 308 714 l 368 485 l 519 714 l 738 714 l 475 360 z"},"*":{"x_min":0,"x_max":542,"ha":542,"o":"m 444 737 l 387 575 l 567 590 l 556 443 l 405 463 l 477 311 l 338 269 l 299 417 l 218 298 l 96 388 l 220 500 l 74 541 l 123 677 l 279 596 l 294 767 z"},"Y":{"x_min":0,"x_max":604,"ha":604,"o":"m 321 449 l 473 714 l 686 714 l 387 277 l 328 0 l 137 0 l 196 277 l 80 714 l 277 714 z"},"c":{"x_min":0,"x_max":504,"ha":504,"o":"m 247 -10 q 150 -10 95 49 q 41 108 41 216 q 41 314 78 394 q 116 474 183 518 q 251 563 337 563 q 432 563 516 524 l 456 384 q 391 413 346 413 q 316 413 290 390 q 264 366 248 320 q 231 273 231 228 q 231 184 246 163 q 260 142 292 142 q 327 142 360 153 q 393 165 430 184 l 430 34 q 391 13 348 1 q 305 -10 247 -10 z"},"!":{"x_min":0,"x_max":304,"ha":304,"o":"m 221 252 l 61 252 l 137 714 l 345 714 z m 6 62 q 6 114 38 145 q 69 176 125 176 q 167 176 190 156 q 213 136 213 100 q 213 46 182 17 q 151 -12 97 -12 q 54 -12 30 7 q 6 25 6 62 z"},"/":{"x_min":0,"x_max":467,"ha":467,"o":"m 533 724 l 124 -10 l -44 -10 l 365 724 z"},"[":{"x_min":0,"x_max":360,"ha":360,"o":"m 233 -168 l -26 -168 l 166 734 l 425 734 l 398 610 l 293 610 l 154 -44 l 259 -44 z m 240 725 z m 89 -158 z"},"6":{"x_min":0,"x_max":580,"ha":580,"o":"m 474 724 q 524 724 588 709 l 557 561 q 511 573 468 573 q 397 573 352 557 q 307 540 278 504 q 249 467 226 394 l 230 394 q 282 477 380 477 q 458 477 499 427 q 540 376 540 281 q 540 195 507 129 q 473 62 410 26 q 348 -10 265 -10 q 155 -10 97 51 q 38 111 38 230 q 38 281 51 354 q 92 545 197 635 q 301 724 474 724 z m 274 140 q 306 140 327 177 q 348 215 348 266 q 348 329 303 329 q 270 329 248 293 q 226 258 226 205 q 226 173 239 156 q 252 140 274 140 z"},"r":{"x_min":0,"x_max":437,"ha":437,"o":"m 440 563 q 467 563 479 559 l 438 372 q 412 383 378 383 q 328 383 298 348 q 268 314 252 243 l 200 0 l 11 0 l 128 553 l 279 553 l 270 461 l 274 461 q 306 516 343 539 q 380 563 440 563 z"},"2":{"x_min":0,"x_max":580,"ha":580,"o":"m 463 0 l -28 0 l -2 125 l 234 338 q 355 446 355 514 q 355 538 342 550 q 330 562 310 562 q 251 562 173 490 l 82 616 q 196 724 346 724 q 436 724 490 676 q 545 627 545 544 q 545 470 502 405 q 460 340 357 251 l 257 165 l 257 159 l 496 159 z"},"{":{"x_min":0,"x_max":359,"ha":359,"o":"m 211 22 q 211 -21 266 -21 l 266 -158 l 226 -158 q 137 -158 93 -125 q 50 -91 50 -23 q 50 8 57 39 l 75 124 q 78 136 78 145 q 78 182 58 197 q 37 212 -8 212 l 18 352 q 76 352 104 371 q 131 390 141 436 l 168 556 q 182 617 205 649 q 229 681 269 698 q 309 714 368 714 l 431 714 l 401 577 q 361 576 342 563 q 323 549 315 514 l 289 388 q 279 341 247 314 q 215 287 153 280 l 153 276 q 197 262 216 233 q 236 205 236 162 q 236 154 231 126 l 214 46 q 211 31 211 22 z"},"9":{"x_min":0,"x_max":580,"ha":580,"o":"m 555 465 q 555 322 505 211 q 455 101 365 45 q 276 -10 155 -10 q 99 -10 52 5 l 52 158 q 97 140 151 140 q 242 140 293 183 q 344 225 364 320 l 360 320 q 331 273 295 254 q 260 235 213 235 q 139 235 96 289 q 53 342 53 433 q 53 519 85 585 q 117 650 178 687 q 239 724 323 724 q 436 724 495 657 q 555 590 555 465 z m 328 574 q 292 574 269 540 q 245 505 245 455 q 245 385 290 385 q 326 385 351 419 q 376 454 376 503 q 376 535 363 555 q 349 574 328 574 z"}," ":{"x_min":0,"x_max":260,"ha":260,"o":""},"I":{"x_min":0,"x_max":355,"ha":355,"o":"m 15 0 l 166 714 l 360 714 l 209 0 z"},"H":{"x_min":0,"x_max":714,"ha":714,"o":"m 568 0 l 377 0 l 438 291 l 269 291 l 207 0 l 16 0 l 167 714 l 358 714 l 303 449 l 473 449 l 528 714 l 719 714 z"},"4":{"x_min":0,"x_max":580,"ha":580,"o":"m 520 138 l 447 138 l 418 0 l 234 0 l 263 138 l -5 138 l 20 263 l 392 714 l 568 714 l 477 282 l 550 282 z m 293 282 l 317 377 q 331 429 346 480 l 342 480 q 317 433 286 396 l 191 282 z"},"~":{"x_min":0,"x_max":566,"ha":566,"o":"m 164 315 q 139 315 108 300 q 78 286 47 256 l 47 395 q 99 448 175 448 q 205 448 229 443 q 253 437 303 417 q 336 403 359 397 q 382 390 407 390 q 432 390 464 406 q 495 421 523 449 l 523 310 q 471 257 395 257 q 365 257 340 263 q 314 269 267 288 q 230 303 209 309 q 188 315 164 315 z"},"D":{"x_min":0,"x_max":684,"ha":684,"o":"m 653 444 q 653 307 604 207 q 556 106 464 53 q 372 0 246 0 l 16 0 l 167 714 l 370 714 q 505 714 579 643 q 653 573 653 444 z m 275 158 q 329 158 371 192 q 413 227 437 290 q 460 353 460 434 q 460 495 434 527 q 407 558 360 558 l 325 558 l 241 158 z"},"^":{"x_min":0,"x_max":535,"ha":535,"o":"m -3 245 l 305 714 l 389 714 l 528 245 l 394 245 l 318 523 l 142 245 z"},"0":{"x_min":0,"x_max":580,"ha":580,"o":"m 565 480 q 565 334 523 221 q 482 108 409 49 q 335 -10 239 -10 q 136 -10 83 52 q 31 113 31 227 q 31 371 72 488 q 114 604 187 665 q 260 725 357 725 q 423 725 469 695 q 516 664 541 609 q 565 555 565 480 z m 335 571 q 308 571 281 517 q 254 462 238 379 q 221 295 221 223 q 221 182 229 163 q 236 144 258 144 q 286 144 312 190 q 338 236 357 320 q 375 403 375 484 q 375 525 366 548 q 357 571 335 571 z"},"F":{"x_min":0,"x_max":569,"ha":569,"o":"m 207 0 l 16 0 l 167 714 l 588 714 l 555 559 l 325 559 l 297 423 l 510 423 l 476 267 l 262 267 z"},"`":{"x_min":0,"x_max":554,"ha":554,"o":"m 476 606 l 361 606 q 321 643 287 684 q 252 725 237 756 l 237 766 l 430 766 q 444 689 476 618 z"},"k":{"x_min":0,"x_max":617,"ha":617,"o":"m 170 760 l 359 760 l 291 436 q 283 398 258 327 l 262 327 q 303 389 337 425 l 455 553 l 671 553 l 431 303 l 565 0 l 351 0 l 283 191 l 234 165 l 200 0 l 11 0 z"},"u":{"x_min":0,"x_max":622,"ha":622,"o":"m 238 183 q 238 162 249 151 q 260 141 275 141 q 304 141 327 179 q 351 218 365 284 l 422 553 l 611 553 l 494 0 l 343 0 l 349 77 l 345 77 q 319 32 282 11 q 246 -10 193 -10 q 124 -10 85 32 q 47 74 47 147 q 47 199 59 259 l 121 553 l 310 553 l 247 252 q 238 212 238 183 z"},"]":{"x_min":0,"x_max":360,"ha":360,"o":"m -39 -44 l 65 -44 l 204 610 l 99 610 l 126 734 l 384 734 l 192 -168 l -65 -168 z m 260 725 z m 32 -158 z"},"U":{"x_min":0,"x_max":701,"ha":701,"o":"m 708 714 l 611 259 q 582 122 501 56 q 420 -10 281 -10 q 215 -10 165 17 q 115 44 88 92 q 61 141 61 200 q 61 231 67 263 l 164 714 l 355 714 l 260 268 q 253 235 253 212 q 253 150 312 150 q 358 150 384 181 q 410 213 424 278 l 517 714 z"},"o":{"x_min":0,"x_max":607,"ha":607,"o":"m 254 -10 q 152 -10 96 45 q 41 101 41 203 q 41 306 80 388 q 119 471 189 517 q 259 563 353 563 q 455 563 510 508 q 566 453 566 350 q 566 248 527 165 q 488 82 418 36 q 348 -10 254 -10 z m 331 421 q 291 421 262 353 q 234 285 234 197 q 234 132 275 132 q 314 132 344 200 q 373 268 373 356 q 373 388 362 405 q 351 421 331 421 z"},"N":{"x_min":0,"x_max":790,"ha":790,"o":"m 644 0 l 422 0 l 281 502 l 277 502 q 263 360 249 298 l 186 0 l 16 0 l 167 714 l 389 714 l 529 234 l 533 234 q 547 349 561 415 l 625 714 l 795 714 z"},"+":{"x_min":0,"x_max":566,"ha":566,"o":"m 222 286 l 50 286 l 50 419 l 222 419 l 222 591 l 354 591 l 354 419 l 526 419 l 526 286 l 354 286 l 354 116 l 222 116 z"},"G":{"x_min":0,"x_max":698,"ha":698,"o":"m 357 418 l 655 418 l 573 30 q 451 -10 319 -10 q 191 -10 121 64 q 51 139 51 275 q 51 405 104 510 q 158 615 252 670 q 345 725 469 725 q 599 725 688 673 l 616 522 q 542 566 467 566 q 402 566 353 531 q 303 495 274 426 q 244 356 244 278 q 244 149 346 149 q 377 149 411 156 l 436 269 l 324 269 z"},"q":{"x_min":0,"x_max":607,"ha":607,"o":"m 286 563 q 330 563 357 547 q 385 531 415 485 l 419 485 l 445 553 l 596 553 l 428 -240 l 237 -240 l 270 -97 q 282 -41 314 54 l 310 54 q 283 18 254 4 q 226 -10 189 -10 q 146 -10 112 15 q 78 40 60 87 q 41 135 41 199 q 41 288 76 378 q 111 469 165 516 q 220 563 286 563 z m 276 142 q 300 142 323 171 q 345 199 358 247 q 371 295 371 341 q 371 411 332 411 q 308 411 285 382 q 262 354 248 306 q 234 259 234 212 q 234 142 276 142 z"},"d":{"x_min":0,"x_max":604,"ha":604,"o":"m 286 563 q 323 563 348 548 q 373 533 402 489 l 406 489 l 407 507 q 410 574 419 613 l 449 760 l 640 760 l 479 0 l 328 0 l 333 60 l 329 60 q 301 21 271 6 q 240 -10 198 -10 q 121 -10 81 45 q 41 99 41 201 q 41 288 76 378 q 111 469 166 516 q 220 563 286 563 z m 276 142 q 300 142 323 171 q 345 199 358 247 q 371 295 371 341 q 371 411 332 411 q 308 411 285 382 q 262 354 248 306 q 234 259 234 212 q 234 142 276 142 z"},"1":{"x_min":0,"x_max":580,"ha":580,"o":"m 378 0 l 188 0 l 273 390 q 287 455 310 515 q 272 482 246 465 l 147 404 l 73 527 l 376 714 l 528 714 z"},"5":{"x_min":0,"x_max":580,"ha":580,"o":"m 320 468 q 408 468 463 410 q 518 353 518 256 q 518 128 439 59 q 361 -10 212 -10 q 149 -10 93 1 q 36 12 10 31 l 10 189 q 48 167 98 155 q 148 142 188 142 q 323 142 323 236 q 323 273 299 296 q 274 319 232 319 q 206 319 178 314 q 149 309 133 303 l 73 348 l 178 714 l 575 714 l 542 556 l 312 556 l 283 466 q 300 468 320 468 z"}}}
